<?xml version="1.0" encoding="UTF-8"?>
<svg version="1.1" xmlns="http://www.w3.org/2000/svg" width="512" height="512">
<path d="M0 0 C168.96 0 337.92 0 512 0 C512 168.96 512 337.92 512 512 C343.04 512 174.08 512 0 512 C0 343.04 0 174.08 0 0 Z " fill="#010000" transform="translate(0,0)"/>
<path d="M0 0 C6.79670006 4.2161348 13.42189166 10.16417655 15.58203125 18.15234375 C15.71996094 18.76207031 15.85789063 19.37179688 16 20 C17.04583063 20.00358253 17.04583063 20.00358253 18.11278915 20.00723743 C35.0717444 20.06635384 52.0305468 20.14188222 68.98934555 20.23571491 C77.19047512 20.28069513 85.39156104 20.3201046 93.59277344 20.34643555 C100.74031938 20.36939767 107.88772747 20.40277554 115.03516412 20.44870156 C118.82027504 20.47265805 122.60524923 20.49137085 126.39043427 20.49761391 C129.95277363 20.50365391 133.51476304 20.52361385 137.07697296 20.55427551 C139.00846794 20.56727001 140.9400446 20.56548283 142.87158203 20.5632782 C144.02140564 20.57581635 145.17122925 20.58835449 146.355896 20.60127258 C147.35511959 20.60588155 148.35434319 20.61049051 149.38384628 20.61523914 C152.45813536 21.06737852 153.83661023 21.78160078 156 24 C156.54889545 28.32255167 156.71716742 30.69605923 154.625 34.5 C150.46285285 36.8783698 146.74014469 36.2494813 142 36 C142 41.28 142 46.56 142 52 C138.37 52 134.74 52 131 52 C131 49.03 131 46.06 131 43 C127.37 43 123.74 43 120 43 C120 45.97 120 48.94 120 52 C116.37 52 112.74 52 109 52 C109 46.72 109 41.44 109 36 C62.965 36.495 62.965 36.495 16 37 C14.02 40.96 12.04 44.92 10 49 C2.81458719 56.66444033 -4.46090822 60.12813396 -15 60.5625 C-23.60044671 60.28235516 -29.63698213 57.46737191 -35.875 51.625 C-42.95002908 43.95067433 -45.51613352 35.64986118 -45.3046875 25.3125 C-44.4563865 16.08994559 -39.96716738 8.97673672 -33 3 C-22.74276996 -4.02649233 -11.32703534 -5.65297108 0 0 Z " fill="#F97902" transform="translate(202,218)"/>
<path d="M0 0 C3.34790453 1.58050995 6.10929444 3.69368205 8.94921875 6.03125 C9.55797852 6.52085205 10.16673828 7.0104541 10.79394531 7.51489258 C15.53756951 11.35085432 20.19982592 15.28469641 24.84057617 19.24414062 C28.72385061 22.55730099 32.6717365 25.7711182 36.671875 28.94140625 C40.20285191 31.75724859 43.69940609 34.61433691 47.19921875 37.46875 C52.22265091 41.56211279 57.2759183 45.61007148 62.38671875 49.59375 C68.38118378 54.26843536 74.25269881 59.08232837 80.09741211 63.94262695 C83.55499345 66.80897257 87.03273521 69.62956066 90.60546875 72.3515625 C91.5790332 73.09599609 91.5790332 73.09599609 92.57226562 73.85546875 C93.79078038 74.7810835 95.01573941 75.69829778 96.24804688 76.60546875 C98.57336356 78.37370718 100.24430559 79.66616603 101.38671875 82.3984375 C101.41765625 83.26855469 101.41765625 83.26855469 101.44921875 84.15625 C101.11921875 84.48625 100.78921875 84.81625 100.44921875 85.15625 C95.82921875 85.15625 91.20921875 85.15625 86.44921875 85.15625 C86.44921875 96.04625 86.44921875 106.93625 86.44921875 118.15625 C81.82921875 118.15625 77.20921875 118.15625 72.44921875 118.15625 C72.50795166 116.98755371 72.56668457 115.81885742 72.62719727 114.61474609 C74.83994873 92.07641697 74.83994873 92.07641697 68.08984375 71.703125 C64.65871373 68.60500103 60.81808107 66.38000281 56.68994141 64.32910156 C53.25311751 62.53018001 50.42015041 60.12613946 47.44921875 57.65625 C46.31358843 56.76517414 45.17552934 55.87718559 44.03515625 54.9921875 C39.26714878 51.24532608 34.60291822 47.37280498 29.93041992 43.50805664 C24.24738001 38.80758934 18.53294113 34.14735995 12.80126953 29.50634766 C12.18622559 29.00796387 11.57118164 28.50958008 10.9375 27.99609375 C10.3492041 27.52413574 9.7609082 27.05217773 9.15478516 26.56591797 C8.01167491 25.62112573 6.8936686 24.64517021 5.80224609 23.64111328 C3.02467648 20.98863289 3.02467648 20.98863289 -0.55859375 20.0390625 C-3.49117394 21.68360747 -5.92709018 23.8080915 -8.42578125 26.03125 C-9.59193647 27.04375918 -10.75996554 28.05411348 -11.9296875 29.0625 C-12.5292627 29.57941406 -13.12883789 30.09632813 -13.74658203 30.62890625 C-16.55774019 33.00869048 -19.45444463 35.27269222 -22.36328125 37.53125 C-27.47763332 41.51130724 -32.53118247 45.55731321 -37.55078125 49.65625 C-43.18068306 54.25156244 -48.85441582 58.78262836 -54.58691406 63.24926758 C-59.29176942 66.92365881 -63.88061989 70.72183855 -68.44140625 74.57421875 C-70.55078125 76.15625 -70.55078125 76.15625 -72.55078125 76.15625 C-72.55078125 82.42625 -72.55078125 88.69625 -72.55078125 95.15625 C-75.31770833 95.90494792 -78.08463542 96.65364583 -80.8515625 97.40234375 C-82.76595651 97.93704425 -84.6651174 98.52769538 -86.55078125 99.15625 C-86.55078125 94.20625 -86.55078125 89.25625 -86.55078125 84.15625 C-91.83078125 84.15625 -97.11078125 84.15625 -102.55078125 84.15625 C-101.43847158 79.70701131 -100.97125973 79.3295302 -97.48828125 76.71875 C-96.58464844 76.02523437 -95.68101562 75.33171875 -94.75 74.6171875 C-94.24259277 74.23014648 -93.73518555 73.84310547 -93.21240234 73.44433594 C-90.02495937 70.97343539 -86.92131709 68.39820733 -83.80078125 65.84375 C-78.77815924 61.74941302 -73.72401794 57.70246585 -68.61328125 53.71875 C-62.51718037 48.96386162 -56.54602138 44.06595035 -50.58837891 39.13916016 C-46.15104424 35.47019513 -41.68619499 31.84166787 -37.1796875 28.2578125 C-34.43304538 26.06213128 -31.70056102 23.84988228 -28.97216797 21.6315918 C-27.60950191 20.52432402 -26.24524499 19.41901115 -24.87939453 18.31567383 C-21.25970179 15.38644024 -17.67787129 12.42299017 -14.140625 9.39453125 C-13.42406738 8.78955811 -12.70750977 8.18458496 -11.96923828 7.5612793 C-10.59129248 6.39659081 -9.22326377 5.22004123 -7.86669922 4.03051758 C-3.30204517 0.20226923 -3.30204517 0.20226923 0 0 Z " fill="#F8F3E7" transform="translate(258.55078125,112.84375)"/>
<path d="M0 0 C26.02849741 0 26.02849741 0 31.99609375 4.5078125 C34.8971004 7.76260045 36.39806923 10.13034347 36.5625 14.5625 C36.1496607 20.07953431 34.49439153 23.67937493 30.3125 27.375 C29.1678125 28.179375 29.1678125 28.179375 28 29 C29.89301536 34.17232986 32.70024214 38.65693138 35.5390625 43.35546875 C37 46 37 46 37 48 C33.39905396 48.86334157 30.56482077 49.10387916 27 48 C23.60256522 44.01024929 21.3648652 39.65437931 19 35 C18.34 34.01 17.68 33.02 17 32 C14.69 31.67 12.38 31.34 10 31 C10 36.61 10 42.22 10 48 C6.7 48 3.4 48 0 48 C0 32.16 0 16.32 0 0 Z " fill="#EA7202" transform="translate(69,298)"/>
<path d="M0 0 C3.20196975 2.71471348 5.52300119 4.70701074 6 9 C3.89886305 10.27569029 2.54926564 11.03543649 0.0625 10.875 C-2 10 -2 10 -4.0625 7.9375 C-8.46543441 5.03343688 -12.85977876 5.36485772 -18 6 C-20.73316599 6.77366774 -20.73316599 6.77366774 -23 8 C-24.31068333 10.44288628 -24.31068333 10.44288628 -25 13 C-25.33 13.66 -25.66 14.32 -26 15 C-26.72886878 22.09750913 -26.36644644 28.15898312 -22 34 C-18.5933247 37.02815582 -15.53785684 37.47326558 -10.99609375 37.29296875 C-7.89860304 36.83834683 -5.61337254 35.6800252 -3 34 C-2.34 33.01 -1.68 32.02 -1 31 C3.75 31.875 3.75 31.875 6 33 C6 35.125 6 35.125 5 38 C-1.74796759 44.19923177 -7.04980509 45.62876423 -16.15234375 45.40234375 C-21.72473153 44.81964736 -25.12191028 42.98721346 -29 39 C-35.25872101 30.97251001 -36.04003061 22.9302923 -35 13 C-32.49979565 6.06193292 -28.31567396 1.62566468 -22 -2 C-14.65117382 -4.36812486 -6.63934168 -3.85081817 0 0 Z " fill="#F3EFE5" transform="translate(291,301)"/>
<path d="M0 0 C4.34853992 2.44819373 5.92111054 4.78907261 7.75 9.4375 C7.75 12.4075 7.75 15.3775 7.75 18.4375 C-0.17 18.4375 -8.09 18.4375 -16.25 18.4375 C-13.9685085 22.11663412 -13.9685085 22.11663412 -11.25 25.4375 C-6.34881457 25.92454819 -6.34881457 25.92454819 -2.125 23.8125 C-1.50625 23.35875 -0.8875 22.905 -0.25 22.4375 C2.375 23.1875 2.375 23.1875 4.75 24.4375 C5.41 24.7675 6.07 25.0975 6.75 25.4375 C5.57631753 28.72381091 3.76454322 30.8250249 0.7890625 32.671875 C-3.73699562 34.37131445 -8.52633705 34.07986625 -13.25 33.4375 C-18.26791684 31.01814724 -21.74958655 27.4383269 -24.25 22.4375 C-24.95707592 16.11856835 -25.45378997 10.17080659 -21.625 4.8125 C-15.59856102 -1.86164037 -8.23636329 -3.5517403 0 0 Z " fill="#F27602" transform="translate(132.25,312.5625)"/>
<path d="M0 0 C3.01024078 2.03016239 4.67403059 3.79044235 6.6875 6.8125 C7.14160156 9.85864258 7.14160156 9.85864258 7.078125 13.20703125 C7.05878906 15.01010742 7.05878906 15.01010742 7.0390625 16.84960938 C7.00554687 18.09548828 6.97203125 19.34136719 6.9375 20.625 C6.91945312 21.89021484 6.90140625 23.15542969 6.8828125 24.45898438 C6.83573916 27.57759335 6.76999094 30.69465973 6.6875 33.8125 C4.0475 33.8125 1.4075 33.8125 -1.3125 33.8125 C-1.6425 32.8225 -1.9725 31.8325 -2.3125 30.8125 C-2.951875 31.3075 -3.59125 31.8025 -4.25 32.3125 C-8.3484398 34.31989908 -11.82231588 34.56899841 -16.3125 33.8125 C-19.18279869 32.01856332 -20.80381638 30.82986724 -22.3125 27.8125 C-22.79073278 24.73122804 -22.89058529 21.88324663 -22.3125 18.8125 C-20.17954545 16.01012587 -17.45396646 14.38323323 -14.3125 12.8125 C-12.1052077 12.74157158 -9.89582548 12.72834975 -7.6875 12.75 C-6.49898437 12.75902344 -5.31046875 12.76804687 -4.0859375 12.77734375 C-3.17070312 12.78894531 -2.25546875 12.80054688 -1.3125 12.8125 C-3.06704385 9.63015895 -3.06704385 9.63015895 -5.3125 6.8125 C-10.08666545 7.22832995 -10.08666545 7.22832995 -14.4375 9.0625 C-15.05625 9.31 -15.675 9.5575 -16.3125 9.8125 C-19.0625 8.4375 -19.0625 8.4375 -21.3125 6.8125 C-20.10691764 3.06179934 -17.80427981 1.38173498 -14.375 -0.42578125 C-9.43461134 -2.25035661 -4.87389902 -1.74724682 0 0 Z " fill="#ED7302" transform="translate(227.3125,312.1875)"/>
<path d="M0 0 C4.78252108 2.1028896 7.64656623 4.42278818 9.85546875 9.30078125 C10.8395437 14.82595206 10.01187058 19.69124844 7.24609375 24.5703125 C4.25475121 28.29268538 0.38687038 29.84569781 -4.23046875 30.67578125 C-9.35211249 30.98975175 -12.33534418 29.59053372 -16.14453125 26.30078125 C-20.07955671 21.72764355 -21.56165194 17.27603511 -21.14453125 11.30078125 C-19.64814868 6.36862555 -16.33774741 2.93652492 -12.0625 0.18359375 C-7.88419022 -1.73962012 -4.20831622 -1.37211039 0 0 Z " fill="#060300" transform="translate(193.14453125,231.69921875)"/>
<path d="M0 0 C2.64 0 5.28 0 8 0 C8.33 5.61 8.66 11.22 9 17 C10.65 15.68 12.3 14.36 14 13 C17.80769866 12.52403767 20.17329346 12.63471106 23.6875 14.1875 C27.29976585 17.0187354 29.76004798 19.39038637 30.45410156 24.04614258 C30.42268066 25.70359497 30.42268066 25.70359497 30.390625 27.39453125 C30.37128906 29.19760742 30.37128906 29.19760742 30.3515625 31.03710938 C30.31804687 32.28298828 30.28453125 33.52886719 30.25 34.8125 C30.23195313 36.07771484 30.21390625 37.34292969 30.1953125 38.64648438 C30.14823916 41.76509335 30.08249094 44.88215973 30 48 C27.36 48 24.72 48 22 48 C21.98541748 47.2886792 21.97083496 46.5773584 21.95581055 45.84448242 C21.88138994 42.62493668 21.78471 39.40643482 21.6875 36.1875 C21.66494141 35.06794922 21.64238281 33.94839844 21.61914062 32.79492188 C21.5659668 31.18520508 21.5659668 31.18520508 21.51171875 29.54296875 C21.48553467 28.55321045 21.45935059 27.56345215 21.43237305 26.54370117 C20.93777148 23.63390236 20.38419947 22.69506351 18 21 C13.92779085 20.47806647 13.92779085 20.47806647 10.34448242 22.17700195 C8.50221494 24.67495207 8.56991195 26.45732816 8.48828125 29.54296875 C8.45283203 30.61611328 8.41738281 31.68925781 8.38085938 32.79492188 C8.34702148 34.47424805 8.34702148 34.47424805 8.3125 36.1875 C8.27833984 37.31865234 8.24417969 38.44980469 8.20898438 39.61523438 C8.12643686 42.4100574 8.05730818 45.20456398 8 48 C5.36 48 2.72 48 0 48 C0 32.16 0 16.32 0 0 Z " fill="#ECE9DF" transform="translate(303,298)"/>
<path d="M0 0 C3.99935107 1.5185506 6.59504503 3.39256754 9 7 C9.22705078 9.8190918 9.22705078 9.8190918 9.1953125 13.19921875 C9.18886719 14.40771484 9.18242187 15.61621094 9.17578125 16.86132812 C9.15902344 18.12396484 9.14226562 19.38660156 9.125 20.6875 C9.11597656 21.96173828 9.10695313 23.23597656 9.09765625 24.54882812 C9.07405641 27.69940627 9.04113194 30.84960983 9 34 C6.69 34 4.38 34 2 34 C1.67 33.34 1.34 32.68 1 32 C0.360625 32.495 -0.27875 32.99 -0.9375 33.5 C-5.0359398 35.50739908 -8.50981588 35.75649841 -13 35 C-15.87029869 33.20606332 -17.49131638 32.01736724 -19 29 C-19.57538625 21.98028769 -19.57538625 21.98028769 -17.3125 18.125 C-13.10238804 14.25624847 -9.29127865 13.75184003 -3.6875 13.875 C-2.61886719 13.89304687 -1.55023438 13.91109375 -0.44921875 13.9296875 C0.35902344 13.95289063 1.16726563 13.97609375 2 14 C0.91215032 10.75016865 0.91215032 10.75016865 -1 8 C-5.03083011 7.67539739 -5.03083011 7.67539739 -9 8 C-9.99 9.485 -9.99 9.485 -11 11 C-13.475 10.01 -13.475 10.01 -16 9 C-16 7.68 -16 6.36 -16 5 C-10.79571753 0.20658194 -6.93267202 -0.83826426 0 0 Z " fill="#F5F1E7" transform="translate(357,311)"/>
<path d="M0 0 C3.01476557 1.76458201 5.41326678 3.82653357 7 7 C7.08527628 9.03232634 7.10716135 11.06747006 7.09765625 13.1015625 C7.09443359 14.31328125 7.09121094 15.525 7.08789062 16.7734375 C7.07951172 18.04445313 7.07113281 19.31546875 7.0625 20.625 C7.05798828 21.90375 7.05347656 23.1825 7.04882812 24.5 C7.03701203 27.66671292 7.02053815 30.83333356 7 34 C4.36 34 1.72 34 -1 34 C-1.01981934 33.34926514 -1.03963867 32.69853027 -1.06005859 32.02807617 C-1.15529299 29.08080849 -1.26497818 26.13425115 -1.375 23.1875 C-1.4059375 22.16333984 -1.436875 21.13917969 -1.46875 20.08398438 C-1.50742188 19.10107422 -1.54609375 18.11816406 -1.5859375 17.10546875 C-1.63306885 15.74651489 -1.63306885 15.74651489 -1.68115234 14.36010742 C-1.86027919 11.73474608 -1.86027919 11.73474608 -4 9 C-7.45769191 8.41657647 -7.45769191 8.41657647 -11 9 C-13.81552788 11.85740505 -14.3914306 14.03892361 -14.51171875 17.984375 C-14.54716797 18.91894531 -14.58261719 19.85351562 -14.61914062 20.81640625 C-14.65297852 22.26853516 -14.65297852 22.26853516 -14.6875 23.75 C-14.72166016 24.73355469 -14.75582031 25.71710938 -14.79101562 26.73046875 C-14.87335273 29.15353199 -14.94254838 31.57623998 -15 34 C-17.64 34 -20.28 34 -23 34 C-23 23.11 -23 12.22 -23 1 C-20.36 1 -17.72 1 -15 1 C-14.67 1.99 -14.34 2.98 -14 4 C-13.175 3.34 -12.35 2.68 -11.5 2 C-7.76198701 -0.45968308 -4.36924935 -1.03367927 0 0 Z " fill="#F67902" transform="translate(168,311)"/>
<path d="M0 0 C4.23780927 1.56955899 6.70304963 3.1096998 9 7 C9.2487793 9.84082031 9.2487793 9.84082031 9.07421875 13.078125 C9.01943359 14.23828125 8.96464844 15.3984375 8.90820312 16.59375 C8.83537109 17.8003125 8.76253906 19.006875 8.6875 20.25 C8.5956543 22.08304687 8.5956543 22.08304687 8.50195312 23.953125 C8.34876343 26.96978358 8.18091879 29.98489814 8 33 C6.68 33 5.36 33 4 33 C1.08639692 28.22169095 0.80123349 25.44893869 2 20 C0.18706911 20.14037521 -1.6253443 20.28744889 -3.4375 20.4375 C-4.44683594 20.51871094 -5.45617187 20.59992188 -6.49609375 20.68359375 C-8.93640779 20.73211468 -8.93640779 20.73211468 -10 22 C-10.04063832 23.66617115 -10.042721 25.33388095 -10 27 C-7.69 27.66 -5.38 28.32 -3 29 C-3.185625 29.61875 -3.37125 30.2375 -3.5625 30.875 C-4.23686176 33.04160178 -4.23686176 33.04160178 -3 35 C-11.98737084 35.78530425 -11.98737084 35.78530425 -16.0625 32.625 C-18.87713202 28.81162758 -19.55044624 26.7705341 -19 22 C-16.43492506 18.29489175 -14.23831037 15.5968282 -10 14 C-6.984375 13.8046875 -6.984375 13.8046875 -3.75 13.875 C-2.67234375 13.89304687 -1.5946875 13.91109375 -0.484375 13.9296875 C0.74539063 13.96449219 0.74539063 13.96449219 2 14 C1.65555119 11.52733235 1.65555119 11.52733235 1 9 C-2.04983996 7.47508002 -4.6423369 7.76437452 -8 8 C-9.94369738 9.35429841 -9.94369738 9.35429841 -11 11 C-13.475 10.01 -13.475 10.01 -16 9 C-16 7.68 -16 6.36 -16 5 C-10.72852791 0.14469676 -6.98170109 -0.65820751 0 0 Z " fill="#F1ECE1" transform="translate(390,311)"/>
<path d="M0 0 C2.64 0 5.28 0 8 0 C8 3.3 8 6.6 8 10 C10.97 10 13.94 10 17 10 C17 12.31 17 14.62 17 17 C14.36 17 11.72 17 9 17 C9.33 22.94 9.66 28.88 10 35 C13.465 35.495 13.465 35.495 17 36 C17 38.31 17 40.62 17 43 C13.53984865 44.73007568 9.78327445 44.4835273 6 44 C2.50109996 41.88608123 1.29421314 40.88263941 0 37 C-0.08106686 35.44578271 -0.10756898 33.88832973 -0.09765625 32.33203125 C-0.09443359 31.43935547 -0.09121094 30.54667969 -0.08789062 29.62695312 C-0.07951172 28.69818359 -0.07113281 27.76941406 -0.0625 26.8125 C-0.05798828 25.87212891 -0.05347656 24.93175781 -0.04882812 23.96289062 C-0.03704626 21.64186288 -0.02059558 19.32096356 0 17 C-1.65 17 -3.3 17 -5 17 C-5 14.69 -5 12.38 -5 10 C-3.35 10 -1.7 10 0 10 C0 6.7 0 3.4 0 0 Z " fill="#F57802" transform="translate(184,302)"/>
<path d="M0 0 C2.64 0 5.28 0 8 0 C10.64 7.59 13.28 15.18 16 23 C18.588914 16.17938947 18.588914 16.17938947 21.17553711 9.35791016 C21.6590564 8.08633057 21.6590564 8.08633057 22.15234375 6.7890625 C22.48226318 5.91975098 22.81218262 5.05043945 23.15209961 4.15478516 C24 2 24 2 25 0 C27.64 0 30.28 0 33 0 C30.63862366 7.26753688 28.013794 14.41505702 25.3125 21.5625 C24.89677734 22.66658203 24.48105469 23.77066406 24.05273438 24.90820312 C23.03666526 27.6060418 22.01905595 30.30328845 21 33 C18.03 33 15.06 33 12 33 C6.140625 18.3515625 6.140625 18.3515625 5.08007812 15.68847656 C4.34468385 13.85796984 3.59812845 12.03191652 2.84179688 10.20996094 C2.47634766 9.3234082 2.11089844 8.43685547 1.734375 7.5234375 C1.40147461 6.72599121 1.06857422 5.92854492 0.72558594 5.10693359 C0 3 0 3 0 0 Z " fill="#F0EDE3" transform="translate(402,312)"/>
<path d="M0 0 C2.97 0 5.94 0 9 0 C9 15.84 9 31.68 9 48 C6.03 48 3.06 48 0 48 C0 32.16 0 16.32 0 0 Z " fill="#E97201" transform="translate(240,298)"/>
<path d="M0 0 C2.64 0 5.28 0 8 0 C8 11.22 8 22.44 8 34 C5.36 34 2.72 34 0 34 C0 22.78 0 11.56 0 0 Z " fill="#EAE7DE" transform="translate(439,312)"/>
<path d="M0 0 C-0.99 1.485 -0.99 1.485 -2 3 C-1.34 3.66 -0.68 4.32 0 5 C-0.93972656 5.09087891 -0.93972656 5.09087891 -1.8984375 5.18359375 C-2.71570313 5.26738281 -3.53296875 5.35117187 -4.375 5.4375 C-5.18710938 5.51871094 -5.99921875 5.59992188 -6.8359375 5.68359375 C-9.04272805 5.89090114 -9.04272805 5.89090114 -11 7 C-11 8.65 -11 10.3 -11 12 C-9.88625 12.144375 -8.7725 12.28875 -7.625 12.4375 C-4 13 -4 13 -2 14 C-2 15.65 -2 17.3 -2 19 C-6.0506293 20.35020977 -9.76461089 20.55728804 -14 20 C-16.87029869 18.20606332 -18.49131638 17.01736724 -20 14 C-20.7475974 9.18320157 -20.69858515 6.00678448 -17.875 1.9375 C-12.85498966 -1.62037141 -5.82314986 -0.35896129 0 0 Z " fill="#F57802" transform="translate(225,326)"/>
<path d="M0 0 C0 0.99 0 1.98 0 3 C3.63 3 7.26 3 11 3 C11.31785906 6.49644963 11.39644605 8.397402 9.4375 11.375 C6.12741203 13.58172531 3.90960695 13.34907205 0 13 C-2.4375 12.5 -2.4375 12.5 -4 12 C-4.66 13.65 -5.32 15.3 -6 17 C-8 15.5 -8 15.5 -10 13 C-10.61089984 8.18916379 -10.73857492 6.1571007 -8.125 2.0625 C-5.0493784 -0.92266214 -3.99925884 -1.19977765 0 0 Z " fill="#E9E5DC" transform="translate(348,327)"/>
<path d="M0 0 C1.28132813 0.00902344 2.56265625 0.01804687 3.8828125 0.02734375 C4.87023437 0.03894531 5.85765625 0.05054688 6.875 0.0625 C5.885 0.3925 4.895 0.7225 3.875 1.0625 C3.875 1.7225 3.875 2.3825 3.875 3.0625 C4.865 3.3925 5.855 3.7225 6.875 4.0625 C5.95267578 4.13597656 5.95267578 4.13597656 5.01171875 4.2109375 C4.20347656 4.28570312 3.39523437 4.36046875 2.5625 4.4375 C1.76199219 4.50710938 0.96148437 4.57671875 0.13671875 4.6484375 C-2.39724441 4.95814426 -2.39724441 4.95814426 -5.125 7.0625 C-5.37530977 9.64630177 -5.37530977 9.64630177 -5.125 12.0625 C-2.815 12.7225 -0.505 13.3825 1.875 14.0625 C1.689375 14.68125 1.50375 15.3 1.3125 15.9375 C0.63813824 18.10410178 0.63813824 18.10410178 1.875 20.0625 C-7.11237084 20.84780425 -7.11237084 20.84780425 -11.1875 17.6875 C-14.00213202 13.87412758 -14.67544624 11.8330341 -14.125 7.0625 C-10.24727497 0.79736963 -7.10834731 -0.06462134 0 0 Z " fill="#F8F4E9" transform="translate(385.125,325.9375)"/>
<path d="M0 0 C0.66 0 1.32 0 2 0 C2 8.58 2 17.16 2 26 C-0.64 26 -3.28 26 -6 26 C-6 25.01 -6 24.02 -6 23 C-6.99 23.66 -7.98 24.32 -9 25 C-11.1875 24.625 -11.1875 24.625 -13 24 C-12.67 23.34 -12.34 22.68 -12 22 C-12.99 21.67 -13.98 21.34 -15 21 C-17.1875 19.75 -17.1875 19.75 -19 18 C-19.375 15.4375 -19.375 15.4375 -19 13 C-17 11 -17 11 -14.3984375 10.8046875 C-13.40070313 10.82789063 -12.40296875 10.85109375 -11.375 10.875 C-9.87066406 10.90207031 -9.87066406 10.90207031 -8.3359375 10.9296875 C-7.56507813 10.95289063 -6.79421875 10.97609375 -6 11 C-6.04125 12.093125 -6.0825 13.18625 -6.125 14.3125 C-6.32074666 18.08892229 -6.32074666 18.08892229 -4 21 C-4 21.99 -4 22.98 -4 24 C-2.68 24 -1.36 24 0 24 C0 16.08 0 8.16 0 0 Z " fill="#DAD9D2" transform="translate(398,320)"/>
<path d="M0 0 C12.45780542 -0.37003382 12.45780542 -0.37003382 14.89453125 1.29296875 C16.75624219 4.1677662 16.35457006 6.6906794 16 10 C14.89453125 11.70703125 14.89453125 11.70703125 13 13 C8.63769798 13.40743792 4.39034742 13.13040636 0 13 C0 8.71 0 4.42 0 0 Z " fill="#030100" transform="translate(79,307)"/>
<path d="M0 0 C3.09244792 0.03255208 6.18489583 0.06510417 9.27734375 0.09765625 C9.27734375 5.04765625 9.27734375 9.99765625 9.27734375 15.09765625 C4.98734375 15.09765625 0.69734375 15.09765625 -3.72265625 15.09765625 C-3.74951037 12.78521833 -3.76898466 10.47269355 -3.78515625 8.16015625 C-3.79675781 6.87238281 -3.80835938 5.58460938 -3.8203125 4.2578125 C-3.69282925 0.13245442 -3.69282925 0.13245442 0 0 Z " fill="#EE7603" transform="translate(246.72265625,191.90234375)"/>
<path d="M0 0 C4.29 0 8.58 0 13 0 C13 4.62 13 9.24 13 14 C8.71 14 4.42 14 0 14 C0 9.38 0 4.76 0 0 Z " fill="#F37802" transform="translate(261,193)"/>
<path d="M0 0 C4.29 0 8.58 0 13 0 C13 4.62 13 9.24 13 14 C8.71 14 4.42 14 0 14 C0 9.38 0 4.76 0 0 Z " fill="#F97A01" transform="translate(261,174)"/>
<path d="M0 0 C4.29 0 8.58 0 13 0 C13 4.62 13 9.24 13 14 C8.71 14 4.42 14 0 14 C0 9.38 0 4.76 0 0 Z " fill="#F97A03" transform="translate(243,174)"/>
<path d="M0 0 C1.65 0 3.3 0 5 0 C5 4.29 5 8.58 5 13 C9.29 13 13.58 13 18 13 C18 13.33 18 13.66 18 14 C12.06 14.495 12.06 14.495 6 15 C6 15.33 6 15.66 6 16 C9.96 16.33 13.92 16.66 18 17 C18 17.33 18 17.66 18 18 C13.71 18 9.42 18 5 18 C5 22.29 5 26.58 5 31 C4.67 31 4.34 31 4 31 C4 26.71 4 22.42 4 18 C3.01 18 2.02 18 1 18 C1 22.29 1 26.58 1 31 C0.67 31 0.34 31 0 31 C0 26.38 0 21.76 0 17 C-3.96 16.67 -7.92 16.34 -12 16 C-12 15.01 -12 14.02 -12 13 C-8.04 13 -4.08 13 0 13 C0 8.71 0 4.42 0 0 Z " fill="#4E2701" transform="translate(256,175)"/>
<path d="M0 0 C6 0 6 0 8.9375 1.5625 C11 4 11 4 10.9375 7.625 C10 11 10 11 8 13 C5.31160615 13.26991906 2.70858064 13.08737357 0 13 C0 8.71 0 4.42 0 0 Z " fill="#D4D4D2" transform="translate(187,369)"/>
<path d="M0 0 C7.92 0 15.84 0 24 0 C24 0.33 24 0.66 24 1 C22.35 1.33 20.7 1.66 19 2 C18.67 2.99 18.34 3.98 18 5 C16.0625 6.125 16.0625 6.125 14 7 C13.01 7.495 13.01 7.495 12 8 C8.6875 8.4375 8.6875 8.4375 5 8 C2.76117475 6.19000447 1.61980009 4.45424256 0 2 C0 1.34 0 0.68 0 0 Z " fill="#1B0D00" transform="translate(116,331)"/>
<path d="M0 0 C0.99773437 0.02320313 1.99546875 0.04640625 3.0234375 0.0703125 C4.52777344 0.09738281 4.52777344 0.09738281 6.0625 0.125 C6.83335937 0.14820313 7.60421875 0.17140625 8.3984375 0.1953125 C8.0859375 3.5703125 8.0859375 3.5703125 7.3984375 7.1953125 C3.70357647 9.65855319 1.76550658 9.58522938 -2.6015625 9.1953125 C-4.6015625 7.9453125 -4.6015625 7.9453125 -5.6015625 6.1953125 C-5.25359324 2.36765061 -4.02220012 0.30196698 0 0 Z " fill="#0D0C0C" transform="translate(350.6015625,330.8046875)"/>
<path d="M0 0 C0.99773437 0.02320313 1.99546875 0.04640625 3.0234375 0.0703125 C4.52777344 0.09738281 4.52777344 0.09738281 6.0625 0.125 C6.83335937 0.14820313 7.60421875 0.17140625 8.3984375 0.1953125 C8.0859375 3.5703125 8.0859375 3.5703125 7.3984375 7.1953125 C3.72496979 9.64429097 1.73487351 9.51068966 -2.6015625 9.1953125 C-4.6015625 7.1953125 -4.6015625 7.1953125 -4.8515625 4.6953125 C-4.49490316 1.12871907 -3.56467289 0.26761808 0 0 Z " fill="#0B0A0A" transform="translate(383.6015625,330.8046875)"/>
<path d="M0 0 C1.22589844 0.01353516 1.22589844 0.01353516 2.4765625 0.02734375 C3.41628906 0.04474609 3.41628906 0.04474609 4.375 0.0625 C4.705 0.7225 5.035 1.3825 5.375 2.0625 C4.385 2.3925 3.395 2.7225 2.375 3.0625 C1.64176204 5.07758358 1.64176204 5.07758358 1.375 7.0625 C0.240625 7.35125 -0.89375 7.64 -2.0625 7.9375 C-3.238125 8.30875 -4.41375 8.68 -5.625 9.0625 C-5.955 9.7225 -6.285 10.3825 -6.625 11.0625 C-9.1 10.0725 -9.1 10.0725 -11.625 9.0625 C-11.625 7.7425 -11.625 6.4225 -11.625 5.0625 C-7.70767767 1.45443996 -5.26706693 -0.07524381 0 0 Z " fill="#EFECE6" transform="translate(352.625,310.9375)"/>
<path d="M0 0 C0.90105469 0.01804687 1.80210937 0.03609375 2.73046875 0.0546875 C3.41753906 0.07789063 4.10460937 0.10109375 4.8125 0.125 C4.5220662 3.39238025 4.32681765 5.5117751 2.1875 8.0625 C-1.20414589 9.57981527 -3.63127516 8.93018298 -7.1875 8.125 C-8.1875 7.125 -8.1875 7.125 -8.4375 4.6875 C-8.355 3.841875 -8.2725 2.99625 -8.1875 2.125 C-4.87379 -0.08414 -3.8428979 -0.09981553 0 0 Z " fill="#150A00" transform="translate(221.1875,330.875)"/>
<path d="M0 0 C2.31 0 4.62 0 7 0 C9 2 9 2 9.1875 4.4375 C9 7 9 7 8 10 C8.33 10.99 8.66 11.98 9 13 C8.01 12.67 7.02 12.34 6 12 C5.3125 9.9375 5.3125 9.9375 5 8 C4.01 8 3.02 8 2 8 C2 9.98 2 11.96 2 14 C1.34 14 0.68 14 0 14 C0 9.38 0 4.76 0 0 Z " fill="#D6D5D2" transform="translate(295,369)"/>
<path d="M0 0 C2.31 0 4.62 0 7 0 C9 2 9 2 9.1875 4.4375 C9 7 9 7 8 10 C8.33 10.99 8.66 11.98 9 13 C8.01 12.67 7.02 12.34 6 12 C5.3125 9.9375 5.3125 9.9375 5 8 C4.01 8 3.02 8 2 8 C2 9.98 2 11.96 2 14 C1.34 14 0.68 14 0 14 C0 9.38 0 4.76 0 0 Z " fill="#D7D6D2" transform="translate(220,369)"/>
<path d="M0 0 C2.3125 1.8125 2.3125 1.8125 4 4 C4 4.99 4 5.98 4 7 C1.7089095 7.19441368 -0.58290337 7.38033135 -2.875 7.5625 C-4.78925781 7.71912109 -4.78925781 7.71912109 -6.7421875 7.87890625 C-10 8 -10 8 -12 7 C-10.27868866 1.83606598 -5.41901878 -1.14084606 0 0 Z " fill="#100700" transform="translate(222,318)"/>
<path d="M0 0 C1.22589844 0.01353516 1.22589844 0.01353516 2.4765625 0.02734375 C3.41628906 0.04474609 3.41628906 0.04474609 4.375 0.0625 C3.900625 0.51625 3.42625 0.97 2.9375 1.4375 C1.28472192 2.99508204 1.28472192 2.99508204 0.375 5.0625 C-0.24375 5.35125 -0.8625 5.64 -1.5 5.9375 C-3.99296335 7.25730413 -5.07647781 8.73971672 -6.625 11.0625 C-9.1 10.0725 -9.1 10.0725 -11.625 9.0625 C-11.625 7.7425 -11.625 6.4225 -11.625 5.0625 C-7.70767767 1.45443996 -5.26706693 -0.07524381 0 0 Z " fill="#E3E0D7" transform="translate(385.625,310.9375)"/>
<path d="M0 0 C3 3.87096774 3 3.87096774 3 6 C-1.95 6 -6.9 6 -12 6 C-11 2 -11 2 -9.375 0.1875 C-5.86456796 -1.56771602 -3.71175344 -1.07978282 0 0 Z " fill="#0D0600" transform="translate(129,319)"/>
<path d="M0 0 C0.99 0 1.98 0 3 0 C4.38671875 1.75 4.38671875 1.75 5.6875 4 C6.12449219 4.7425 6.56148437 5.485 7.01171875 6.25 C7.33785156 6.8275 7.66398437 7.405 8 8 C8.33 5.36 8.66 2.72 9 0 C9.66 0 10.32 0 11 0 C11 4.62 11 9.24 11 14 C6.01222852 11.50611426 5.48741151 9.79715076 3 5 C2.67 7.97 2.34 10.94 2 14 C1.34 14 0.68 14 0 14 C0 9.38 0 4.76 0 0 Z " fill="#CFCDCA" transform="translate(249,369)"/>
<path d="M0 0 C3 1 3 1 4.16796875 3.1796875 C4.50441406 4.06914062 4.84085937 4.95859375 5.1875 5.875 C5.53167969 6.75929688 5.87585938 7.64359375 6.23046875 8.5546875 C7 11 7 11 7 14 C6.34 14 5.68 14 5 14 C5 13.01 5 12.02 5 11 C2.69 11 0.38 11 -2 11 C-2.33 11.99 -2.66 12.98 -3 14 C-4.37095624 10.30962722 -3.60010967 8.29116165 -2.0625 4.75 C-1.68222656 3.85796875 -1.30195313 2.9659375 -0.91015625 2.046875 C-0.60980469 1.37140625 -0.30945313 0.6959375 0 0 Z " fill="#AFAFAC" transform="translate(341,369)"/>
<path d="M0 0 C2.64 0 5.28 0 8 0 C8 0.66 8 1.32 8 2 C6.02 2 4.04 2 2 2 C2 3.32 2 4.64 2 6 C3.98 6 5.96 6 8 6 C8 6.66 8 7.32 8 8 C6.02 8 4.04 8 2 8 C2 9.32 2 10.64 2 12 C4.31 12 6.62 12 9 12 C9 12.66 9 13.32 9 14 C6.03 14 3.06 14 0 14 C0 9.38 0 4.76 0 0 Z " fill="#CAC9C5" transform="translate(235,369)"/>
<path d="M0 0 C2.64 0 5.28 0 8 0 C8 0.66 8 1.32 8 2 C6.02 2 4.04 2 2 2 C2 3.32 2 4.64 2 6 C3.98 6 5.96 6 8 6 C8 6.66 8 7.32 8 8 C6.02 8 4.04 8 2 8 C2 9.32 2 10.64 2 12 C3.98 12 5.96 12 8 12 C8 12.66 8 13.32 8 14 C5.36 14 2.72 14 0 14 C0 9.38 0 4.76 0 0 Z " fill="#CFCECB" transform="translate(310,369)"/>
<path d="M0 0 C2.97 0.495 2.97 0.495 6 1 C6.6875 3.8125 6.6875 3.8125 7 7 C5.8125 8.875 5.8125 8.875 4 10 C2.68 10 1.36 10 0 10 C0 6.7 0 3.4 0 0 Z " fill="#121110" transform="translate(189,371)"/>
<path d="M0 0 C3 0.125 3 0.125 4 1.125 C4.125 4.125 4.125 4.125 4 7.125 C3 8.125 3 8.125 0 8.25 C-3 8.125 -3 8.125 -4 7.125 C-4.125 4.125 -4.125 4.125 -4 1.125 C-3 0.125 -3 0.125 0 0 Z " fill="#F1EEE6" transform="translate(443,297.875)"/>
<path d="M0 0 C0.66 0 1.32 0 2 0 C1.67 0.7425 1.34 1.485 1 2.25 C-0.65199974 6.79299928 0.10869496 9.74456366 2 14 C1.34 14 0.68 14 0 14 C-0.66 12.35 -1.32 10.7 -2 9 C-4.97 11.475 -4.97 11.475 -8 14 C-7.83242188 13.39671875 -7.66484375 12.7934375 -7.4921875 12.171875 C-7.28851563 11.37265625 -7.08484375 10.5734375 -6.875 9.75 C-6.66617187 8.96109375 -6.45734375 8.1721875 -6.2421875 7.359375 C-5.95685589 4.5796929 -6.55022106 3.34112451 -8 1 C-6.02 1.99 -6.02 1.99 -4 3 C-4 3.66 -4 4.32 -4 5 C-3.34 5 -2.68 5 -2 5 C-1.34 3.35 -0.68 1.7 0 0 Z " fill="#D5D4D1" transform="translate(361,369)"/>
<path d="M0 0 C0.99 0 1.98 0 3 0 C7 6.75 7 6.75 7 9 C7.66 9 8.32 9 9 9 C9 6.03 9 3.06 9 0 C9.33 0 9.66 0 10 0 C10 3.96 10 7.92 10 12 C5.81800367 9.90900184 5.00340633 9.00681267 3 5 C3 4.34 3 3.68 3 3 C2.34 3 1.68 3 1 3 C1 5.97 1 8.94 1 12 C0.67 12 0.34 12 0 12 C0 8.04 0 4.08 0 0 Z " fill="#F1F1EF" transform="translate(170,370)"/>
<path d="M0 0 C3.3 0 6.6 0 10 0 C10 0.66 10 1.32 10 2 C8.68 2 7.36 2 6 2 C6 5.96 6 9.92 6 14 C5.34 14 4.68 14 4 14 C4 10.04 4 6.08 4 2 C2.68 2 1.36 2 0 2 C0 1.34 0 0.68 0 0 Z " fill="#CDCDCA" transform="translate(265,369)"/>
<path d="M0 0 C3.96 0 7.92 0 12 0 C12 1.32 12 2.64 12 4 C8.37 4 4.74 4 1 4 C0.67 2.68 0.34 1.36 0 0 Z " fill="#FCFAF0" transform="translate(347,326)"/>
<path d="M0 0 C2.64 0 5.28 0 8 0 C8 0.33 8 0.66 8 1 C6.02 1 4.04 1 2 1 C2 2.32 2 3.64 2 5 C3.65 5 5.3 5 7 5 C7 5.66 7 6.32 7 7 C5.35 7 3.7 7 2 7 C2 8.98 2 10.96 2 13 C1.34 13 0.68 13 0 13 C0 8.71 0 4.42 0 0 Z " fill="#D5D4D3" transform="translate(148,370)"/>
<path d="M0 0 C2.97 0 5.94 0 9 0 C9.33 0.66 9.66 1.32 10 2 C9.01 2.33 8.02 2.66 7 3 C6.26676204 5.01508358 6.26676204 5.01508358 6 7 C4.35 7 2.7 7 1 7 C0 2.25 0 2.25 0 0 Z " fill="#E0DDD3" transform="translate(348,311)"/>
<path d="M0 0 C0.66 0 1.32 0 2 0 C2 3.96 2 7.92 2 12 C3.98 12 5.96 12 8 12 C8 12.66 8 13.32 8 14 C5.36 14 2.72 14 0 14 C0 9.38 0 4.76 0 0 Z " fill="#CBCAC8" transform="translate(324,369)"/>
<path d="M0 0 C0.66 0.33 1.32 0.66 2 1 C1.01 2.485 1.01 2.485 0 4 C0.66 4 1.32 4 2 4 C1.67 5.32 1.34 6.64 1 8 C0.67 7.34 0.34 6.68 0 6 C-1.98 6.99 -1.98 6.99 -4 8 C-4.66 7.34 -5.32 6.68 -6 6 C-5.67 5.34 -5.34 4.68 -5 4 C-6.32 3.67 -7.64 3.34 -9 3 C-7.88625 2.690625 -6.7725 2.38125 -5.625 2.0625 C-2.2054845 1.17673517 -2.2054845 1.17673517 0 0 Z " fill="#EAE7E1" transform="translate(358,337)"/>
<path d="M0 0 C-0.185625 0.61875 -0.37125 1.2375 -0.5625 1.875 C-1.23686176 4.04160178 -1.23686176 4.04160178 0 6 C-3.3 6 -6.6 6 -10 6 C-8.26240984 0.78722952 -5.3189028 -0.4432419 0 0 Z " fill="#EDE9E0" transform="translate(387,340)"/>
<path d="M0 0 C3.96 0 7.92 0 12 0 C11.01 0.33 10.02 0.66 9 1 C9 1.66 9 2.32 9 3 C9.99 3.33 10.98 3.66 12 4 C9.03 4 6.06 4 3 4 C3.33 3.01 3.66 2.02 4 1 C2.68 0.67 1.36 0.34 0 0 Z " fill="#FDFBF5" transform="translate(380,326)"/>
<path d="M0 0 C2.475 0.495 2.475 0.495 5 1 C4.67 2.32 4.34 3.64 4 5 C2.68 5 1.36 5 0 5 C0 3.35 0 1.7 0 0 Z " fill="#1D1C1A" transform="translate(297,371)"/>
<path d="M0 0 C2.475 0.495 2.475 0.495 5 1 C4.67 2.32 4.34 3.64 4 5 C2.68 5 1.36 5 0 5 C0 3.35 0 1.7 0 0 Z " fill="#1A1917" transform="translate(222,371)"/>
<path d="M0 0 C2.52588702 2.36292656 3.88820837 3.66462511 5 7 C3.02 7.99 3.02 7.99 1 9 C0.67 6.03 0.34 3.06 0 0 Z " fill="#0E0E0D" transform="translate(172,374)"/>
<path d="M0 0 C0.66 0 1.32 0 2 0 C2.12375 1.093125 2.2475 2.18625 2.375 3.3125 C2.75464801 7.07381802 2.75464801 7.07381802 5 10 C4.01 10 3.02 10 2 10 C-0.09350689 6.5980513 -0.17942163 3.94727588 0 0 Z " fill="#D5D4D0" transform="translate(371,333)"/>
<path d="M0 0 C0.99 0 1.98 0 3 0 C3.66 1.65 4.32 3.3 5 5 C3.68 4.67 2.36 4.34 1 4 C0.67 4.66 0.34 5.32 0 6 C0 4.02 0 2.04 0 0 Z " fill="#232321" transform="translate(297,377)"/>
<path d="M0 0 C0.99 0.33 1.98 0.66 3 1 C2.34 1 1.68 1 1 1 C0.566875 1.928125 0.566875 1.928125 0.125 2.875 C-1 5 -1 5 -3 7 C-3.99 6.67 -4.98 6.34 -6 6 C-4 4 -2 2 0 0 Z " fill="#E8E5E0" transform="translate(290,332)"/>
<path d="M0 0 C0.33 0.99 0.66 1.98 1 3 C-0.98 4.32 -2.96 5.64 -5 7 C-5.66 6.67 -6.32 6.34 -7 6 C-4.69 4.02 -2.38 2.04 0 0 Z " fill="#EAE7DF" transform="translate(188,168)"/>
</svg>
